<svg width="615.78mm" height="146.3mm" version="1.1" viewBox="0 0 615.78 146.3" xmlns="http://www.w3.org/2000/svg">
 <g transform="translate(-9.4824 -9.735)" display="none">
  <rect transform="translate(131.55 -196.47)" x="-131.55" y="196.47" width="164.8" height="164.8" fill="#eef3f6" fill-rule="evenodd" stroke-width=".26458"/>
 </g>
 <g transform="translate(122.07 -206.21)">
  <g transform="translate(0 -.0016372)">
   <g transform="matrix(.97725 0 0 .97725 -.88309 6.8341)" fill="#f0c514">
    <path d="m-49.152 204.02-11.699 20.263c3.8997 2.2515 7.7993 4.5032 11.699 6.7546 1.3334 0.76983 2.6669 1.5396 4.0003 2.3094 2.3671 1.3666 4.7342 2.7334 7.1014 4.1l6.9288 4.0003c1.7889 1.0328 3.5777 2.0657 5.3666 3.0985l-1.789-3.0985-2.3094-4.0003-5.5997-9.6992-2.0004-3.4644z"/>
    <path d="m-90.58 275.77-1.7896 3.0996-2.3099 4.0013-5.5997 9.6986-1.9999 3.4644-11.699 20.263h23.398v-34.328z"/>
    <path d="m3.9745 296.04c-3.8995 2.2514-7.799 4.5027-11.699 6.7541-1.3336 0.76996-2.6672 1.54-4.0008 2.3099-2.3665 1.3663-4.7328 2.7327-7.0993 4.099-2.3102 1.3338-4.6206 2.6675-6.9308 4.0013-1.7889 1.0328-3.5777 2.0657-5.3666 3.0985h46.795z"/>
   </g>
   <g transform="matrix(.97725 0 0 .97725 -.88309 6.8341)" fill="#e84c3d">
    <path d="m-86.58 214.05v23.399h40.528l-7.1009-4.0995-9.6986-5.5997-3.4644-2.0004z"/>
    <path d="m5.4396 267.17c-2.2514 3.8995-4.5027 7.799-6.7541 11.698-0.77008 1.3338-1.5404 2.6675-2.3105 4.0013-1.3664 2.3666-2.7326 4.7332-4.099 7.0998-1.3336 2.3099-2.6672 4.6199-4.0008 6.9298-1.0328 1.7889-2.0657 3.5777-3.0985 5.3666l3.0985-1.7891 4.0008-2.3099 13.164-7.6 20.263-11.699z"/>
    <path d="m-86.58 296.9v46.797l20.264-11.699c-2.2515-3.8997-4.5031-7.7993-6.7546-11.699-0.76996-1.3336-1.54-2.6672-2.3099-4.0008-1.3664-2.3666-2.7326-4.7332-4.099-7.0998-1.3334-2.3096-2.6668-4.6192-4.0003-6.9288-1.0333-1.7897-2.0668-3.5794-3.1001-5.3692z"/>
   </g>
   <g transform="matrix(.97725 0 0 .97725 -.88309 6.8341)" fill="#34495e">
    <path d="m-113.98 241.45 11.699 20.263c3.8997-2.2515 7.7993-4.5031 11.699-6.7546 1.3334-0.76984 2.6669-1.5396 4.0003-2.3094 2.3668-1.3665 4.7335-2.733 7.1003-4.0995 2.3096-1.3334 4.6192-2.6668 6.9288-4.0003 1.7896-1.0332 3.5791-2.0664 5.3687-3.0996h-23.398z"/>
    <path d="m-7.724 241.45v40.526l1.789-3.0985 2.3099-4.0013 7.5995-13.163 11.699-20.263z"/>
    <path d="m-72.55 313.2 1.789 3.099 2.3099 4.0008 5.5997 9.6992 13.699 23.728 11.699-20.263c-3.8995-2.2514-7.799-4.5027-11.699-6.7541-1.3337-0.77002-2.6676-1.5399-4.0013-2.3099-2.3667-1.3664-4.7332-2.7331-7.0998-4.0995-2.3098-1.3336-4.6195-2.6672-6.9293-4.0008-1.7892-1.033-3.5784-2.066-5.3676-3.099z"/>
   </g>
   <g transform="matrix(.97725 0 0 .97725 -.88309 6.8341)" fill="#1ab99b">
    <path d="m-11.725 214.05-20.263 11.699c2.2516 3.8999 4.5035 7.7996 6.7551 11.7 0.76984 1.3334 1.5396 2.6669 2.3094 4.0003 1.3664 2.3666 2.7326 4.7332 4.099 7.0998 1.3336 2.3098 2.6672 4.6195 4.0008 6.9293 1.033 1.7892 2.066 3.5784 3.099 5.3676v-23.397z"/>
    <path d="m-83.48 255.47-3.1001 1.7901-13.699 7.9091-3.4644 2.0004-20.263 11.699 20.263 11.699c2.2515-3.8996 4.5027-7.7994 6.7541-11.699 0.76996-1.3336 1.54-2.6672 2.3099-4.0008 1.3664-2.3667 2.7331-4.7332 4.0995-7.0998 1.3334-2.3096 2.6668-4.6192 4.0003-6.9288 1.0333-1.7898 2.0668-3.5794 3.1001-5.3692z"/>
    <path d="m-52.251 320.3 3.099 1.7896 4.0013 2.31 9.6981 5.5991 3.4654 2.0009 20.263 11.698v-23.398h-34.328z"/>
   </g>
  </g>
  <text x="51.436478" y="330.13831" fill="#333333" font-family="Raleway" font-size="139.03px" font-weight="600" letter-spacing="0px" stroke-width="2.528" word-spacing="0px" style="font-feature-settings:normal;font-variant-caps:normal;font-variant-ligatures:normal;font-variant-numeric:normal;line-height:1.25" xml:space="preserve"><tspan x="51.436478" y="330.13831" fill="#333333" font-family="Raleway" font-size="139.03px" font-weight="600" stroke-width="2.528" style="font-feature-settings:normal;font-variant-caps:normal;font-variant-ligatures:normal;font-variant-numeric:normal">Aflasio</tspan></text>
 </g>
</svg>
